<svg version="1" xmlns="http://www.w3.org/2000/svg" width="682.667" height="682.667" viewBox="0 0 512.000000 512.000000"><path d="M378 153.5c0 .7-22 83.6-34.1 128.4-4.3 16.2-7.9 29.8-7.9 30.3 0 .4 5.4.8 12 .8 10.4 0 12-.2 12-1.6 0-.9 4.4-18.3 9.9-38.8 5.4-20.4 10.2-38.5 10.6-40.1.5-1.7.9-3.2 1-3.5 1-3.2 2.8-9.8 3-11 .2-.8 1.7-6.8 3.5-13.3 1.7-6.4 3.3-12.5 3.5-13.5.6-2.7 9.5-35.6 10-37 .3-.9-2.4-1.2-11.5-1.2-6.6 0-12 .2-12 .5zM161.4 222.5V286H185l.1-5.3c0-2.8.1-21.3.1-41 0-19.6.3-35.7.7-35.7.3 0 1.4 1.7 2.3 3.7.9 2.1 6.7 15 12.8 28.8 6.2 13.7 11.9 26.7 12.8 28.7l1.7 3.8h8.7c8 0 8.7-.2 9.4-2.2.3-1.2 2.6-6.3 5-11.5s4.4-9.6 4.4-9.9c0-.2 1.7-4.1 3.8-8.7 2.1-4.5 6.2-13.7 9.2-20.5 3-6.7 5.7-12.2 6-12.2.3 0 .6 18.3.6 40.7v40.8l12.2.3 12.2.3V159h-27.6l-2.9 6.7c-1.6 3.8-4.6 10.5-6.7 15-2.1 4.6-3.8 8.4-3.8 8.7 0 .2-1.8 4.3-4 9s-4 8.8-4 9c0 .3-1.2 3.1-2.7 6.3-1.4 3.2-4.3 9.6-6.4 14.3-2.1 4.6-4.1 8.6-4.6 8.7-.4.2-7.7-15.3-16.2-34.4-8.5-19.2-16.3-36.7-17.4-39.1l-1.9-4.2h-27.4v63.5zM94.5 183.4c-4.3 2.5-31.6 17.5-43 23.7-3.8 2.1-14.2 7.8-23 12.6l-16 8.8v7c-.1 3.9.1 7.7.3 8.5.2.9 4.7 3.8 10 6.6S42.2 260.8 54 267c11.8 6.2 26.5 13.9 32.6 17.1 6.2 3.3 11.5 5.9 11.8 5.9.4 0 .5-5.7.4-12.6l-.3-12.6L71 251c-15.1-7.6-27.6-14.2-27.7-14.6-.2-.5 12.1-7.2 27.3-14.9 15.2-7.7 27.8-14.5 28.1-15.1.2-.5.2-6.5.1-13.1l-.3-12.1-4 2.2zM412.7 181.8c-.5 1.1-.2 25 .3 25.5.3.2 7.9 4.1 17 8.7 20.2 10.1 37.2 19 38.3 20 .4.4-12 7.1-27.5 14.8l-28.4 14.1.1 12.6c0 6.9.3 12.5.7 12.5.4 0 2.7-1.1 5-2.4 2.4-1.2 12-6.3 21.3-11.2 9.4-4.9 20.2-10.5 24-12.6 3.9-2 13.4-7 21.2-11l14.3-7.3v-17l-10.7-5.9c-6-3.3-13.3-7.3-16.3-8.9-3-1.7-17.5-9.7-32.2-17.8-14.8-8.1-26.9-14.4-27.1-14.1z"/></svg>